<?xml version="1.0" encoding="utf-8"?>
<!-- Generator: Adobe Illustrator 22.1.0, SVG Export Plug-In . SVG Version: 6.00 Build 0)  -->
<svg version="1.1" id="Layer_1" xmlns="http://www.w3.org/2000/svg" xmlns:xlink="http://www.w3.org/1999/xlink" x="0px" y="0px"
	 viewBox="0 0 16 15" style="enable-background:new 0 0 16 15;" xml:space="preserve">
<style type="text/css">
	.st0{fill:#1DA1F2;}
</style>
<path class="st0" d="M8.5,0.3l2,4.1c0.1,0.2,0.2,0.3,0.4,0.3l4.6,0.7c0.4,0.1,0.6,0.6,0.3,0.9l-3.3,3.2c-0.1,0.1-0.2,0.3-0.2,0.5
	l0.8,4.5c0.1,0.4-0.4,0.8-0.8,0.6L8.2,13c-0.2-0.1-0.3-0.1-0.5,0l-4.1,2.1c-0.4,0.2-0.9-0.1-0.8-0.6L3.6,10c0-0.2,0-0.4-0.2-0.5
	L0.2,6.2C-0.2,5.9,0,5.4,0.5,5.3L5,4.7c0.2,0,0.3-0.1,0.4-0.3l2-4.1C7.7-0.1,8.3-0.1,8.5,0.3z"/>
</svg>
