<?xml version="1.0" encoding="utf-8"?>
<!-- Generator: Adobe Illustrator 22.1.0, SVG Export Plug-In . SVG Version: 6.00 Build 0)  -->
<svg version="1.1" id="Layer_1" xmlns="http://www.w3.org/2000/svg" xmlns:xlink="http://www.w3.org/1999/xlink" x="0px" y="0px"
	 viewBox="0 0 38 28" style="enable-background:new 0 0 38 28;" xml:space="preserve">
<style type="text/css">
	.st0{fill:#7dc9f8;}
</style>
<path class="st0" d="M24.9,10.5h-8.2V2.8c0-1.1-0.7-2.2-1.7-2.6S12.8,0,12,0.8L0.8,12c-1.1,1.1-1.1,2.9,0,4L12,27.2
	c0.5,0.5,1.2,0.8,2,0.8c0.4,0,0.7-0.1,1.1-0.2c1-0.4,1.7-1.5,1.7-2.6v-7.7H25c3.3,0,6,2.5,6,5.6v1.3c0,2,1.6,3.5,3.5,3.5
	s3.5-1.6,3.5-3.5v-1.3C38,16.2,32.1,10.5,24.9,10.5z"/>
</svg>
